<svg
  width="90"
  height="70"
  viewBox="0 0 90 70"
  fill="none"
  xmlns="http://www.w3.org/2000/svg"
>
  <g clip-path="url(#clip0_30_94)">
    <path
      d="M68.8909 15.1948C68.373 15.2649 67.8117 15.304 67.1986 15.304C66.4384 15.304 65.7839 15.2484 65.206 15.1577C66.2147 18.2293 66.7595 21.511 66.7595 24.9184C66.7595 40.4494 55.4333 53.3476 40.5466 55.8897C38.7963 56.1884 36.9963 56.345 35.1611 56.345C17.71 56.345 3.56269 42.2746 3.56269 24.9184C3.56269 7.56221 17.71 -6.50816 35.1611 -6.50816C36.9963 -6.50816 38.7963 -6.35159 40.5466 -6.05288C48.1008 -4.76327 54.7374 -0.805847 59.4455 4.80788C59.6382 4.7914 59.8287 4.7811 60.0172 4.7811C61.7178 4.7811 63.0518 5.41149 64.3422 6.01921C64.5079 6.09749 64.6738 6.17578 64.8393 6.252C59.5282 -2.0831 50.7625 -8.0285 40.5466 -9.5921C38.7901 -9.85991 36.9921 -10 35.1611 -10C15.7712 -10 0.0517578 5.63398 0.0517578 24.9184C0.0517578 44.2029 15.7712 59.8368 35.1611 59.8368C36.9921 59.8368 38.7901 59.6968 40.5466 59.4289C57.3804 56.8518 70.2704 42.3817 70.2704 24.9184C70.2704 21.5442 69.7898 18.2808 68.8909 15.1948Z"
      fill="black"
    />
    <path
      d="M47.3053 25.4508L49.8966 28.0279L47.005 30.902L44.1152 28.0279L46.7044 25.4508L44.1152 22.8757L47.005 20L49.8966 22.8757L47.3053 25.4508Z"
      fill="black"
    />
    <path
      d="M33.0582 25.4508L35.6493 28.0281L32.7577 30.902L29.8682 28.0281L32.4573 25.4508L29.8682 22.8757L32.7577 20L35.6493 22.8757L33.0582 25.4508Z"
      fill="black"
    />
    <path
      d="M33.0582 25.451L35.6493 28.0281L32.7577 30.902L29.8682 28.0281L32.4573 25.451L29.8682 22.8759L32.7577 20L35.6493 22.8759L33.0582 25.451Z"
      fill="black"
    />
    <path
      d="M42.3749 8.3953L39.4849 5.52097L36.5948 8.3953L39.4849 11.2696L42.3749 8.3953Z"
      fill="black"
    />
    <path
      d="M12.4011 25.372C12.4011 15.8214 18.6877 11.0977 26.4718 8.92016L30.8837 13.3081L32.7666 11.4376L37.5514 16.1964C40.8573 14.0869 43.2816 9.69784 43.55 6.56755C43.8607 2.94468 42.2554 0 39.486 0C37.0936 0 35.5548 1.88086 35.5919 4.01304C35.6499 7.46986 38.9413 8.88514 37.7337 11.4417C37.7316 11.4479 37.7275 11.452 37.7275 11.4582L34.2911 8.04051L32.4083 9.91106L30.2416 7.73932C31.7413 7.76198 33.7364 7.70719 35.7392 7.28899C35.3042 6.6895 34.9892 5.68377 34.8669 5.0163C24.2078 5.61579 19.394 3.29613 14.1038 4.23759C12.8858 5.383 11.9102 6.31004 10.7689 8.57613C17.3081 5.78884 20.7528 6.33682 24.2782 7.07639C15.5226 10.8505 9.83887 17.7765 9.83887 26.7873C9.83887 42.4666 23.5864 49.683 40.5466 49.683V43.2865C31.8179 43.2764 12.4011 38.4455 12.4011 25.372ZM39.3135 10.8873C40.8424 9.30313 37.3546 7.70059 37.3546 5.27999C37.3546 3.54602 38.2994 2.57511 39.486 2.57511C40.6729 2.57511 41.893 4.11399 41.893 5.94952C41.893 7.22059 41.1183 9.81218 39.8589 11.0462C39.422 11.4767 38.7963 11.9959 38.2536 11.9835C37.9203 11.6518 38.2536 11.9835 37.9203 11.6518C38.4493 11.5204 39.0007 11.211 39.3135 10.8873Z"
      fill="black"
    />
    <path
      d="M55.6546 22.9819C56.384 22.8144 56.8548 22.3296 57.1176 21.9646C58.5763 19.9389 54.9274 18.963 54.5831 16.5668C54.3369 14.8503 55.1339 13.7562 56.3088 13.5891C57.4839 13.4222 58.9104 14.7741 59.1712 16.5913C59.3516 17.8496 58.9495 20.5213 57.8818 21.9228C55.1499 25.5094 49.4537 32.136 40.5469 38.5223C47.6584 38.0759 47.6584 38.0759 47.6584 38.0759C47.6584 38.0759 52.8888 32.2219 55.1499 29.1833C57.4515 26.0899 60.8941 20.1117 60.8995 16.9699C60.9059 13.1575 58.6844 10.6504 55.9428 11.0398C53.5742 11.376 52.3183 13.4544 52.6582 15.5598C53.1953 18.9 56.5636 19.8818 55.8823 22.4401C55.8019 22.7419 55.6536 22.9757 55.6546 22.9819Z"
      fill="black"
    />
    <path
      d="M49.0039 36.9844C54.6028 36.6329 54.6028 36.6329 54.6028 36.6329C59.9135 32.2832 64.4187 19.8197 62.4509 14L59.9031 15.267C59.9031 15.267 61.5188 18.7124 61.2599 20.2318C60.119 26.9268 49.0039 36.9844 49.0039 36.9844Z"
      fill="black"
    />
    <path
      d="M53.013 -1.84148V24.2991H50.3721V-4.46809L53.013 -1.84148Z"
      fill="black"
    />
    <path
      d="M49.9194 20.4362V32.8853H44.0927V22.3624C37.8289 22.3995 27.843 37.6503 14.1265 31.5545C13.3479 30.0856 12.0796 24.3034 15.4271 18.8664C15.4271 18.8664 17.1662 17 27.6462 17C27.6462 23.1432 27.6462 17 27.6462 23.1432C22.3539 23.1432 16.347 23.2194 14.7396 25.3681C22.0598 32.9924 37.802 23.7014 44.0927 17.3914H45.9072V20.4362H45.9175V24.8077C45.9175 27.3251 46.5164 29.3667 47.2536 29.3667C47.9912 29.3667 48.5896 27.3251 48.5896 24.8077C48.5896 22.7394 48.1836 20.9904 47.6305 20.4362H49.9194Z"
      fill="black"
    />
    <path
      d="M90.0003 6.83718C89.9154 6.84542 89.8325 6.84954 89.7476 6.85366C89.6627 6.85572 89.5796 6.85778 89.4947 6.85778H89.4721C89.3872 6.85778 89.3023 6.85366 89.2173 6.8516C89.1904 6.84954 89.1635 6.84954 89.1386 6.84748C89.0496 6.84336 88.9607 6.83512 88.8735 6.82688C88.8509 6.82688 88.83 6.82482 88.8074 6.82276C88.7142 6.81246 88.6189 6.80216 88.5237 6.7898C88.511 6.78774 88.4967 6.78568 88.4843 6.78362C88.1405 6.7383 87.7925 6.67238 87.4321 6.59821C87.2893 6.56731 87.1441 6.53641 86.9971 6.50345C86.9225 6.48697 86.8479 6.47049 86.7734 6.45401C86.6988 6.43547 86.6242 6.41899 86.5476 6.4025C86.3964 6.36748 86.2431 6.33246 86.0857 6.29744C86.007 6.28096 85.9283 6.26242 85.8495 6.24594C85.6113 6.19444 85.3648 6.14088 85.1142 6.09143C84.1075 5.89367 82.9849 5.7371 81.6903 5.7371C76.0251 5.7371 76.5098 10.0303 69.8919 11.3941C70.2233 11.5733 70.5671 11.6475 70.9276 11.6475C71.259 11.6475 71.6028 11.5836 71.9632 11.4806C72.0834 11.4456 72.2035 11.4064 72.3257 11.3652C72.5101 11.3014 72.6986 11.2293 72.8912 11.1531C73.0194 11.1036 73.1501 11.0501 73.2827 10.9944C73.349 10.9677 73.4152 10.9409 73.4836 10.912C73.6164 10.8564 73.7529 10.8008 73.8919 10.7431C73.96 10.7143 74.0306 10.6875 74.1011 10.6586C74.3124 10.5742 74.5278 10.4918 74.7494 10.4114C74.8965 10.3599 75.0456 10.3084 75.1968 10.259C75.3478 10.2116 75.5032 10.1642 75.6585 10.123C75.8159 10.0798 75.9736 10.0427 76.1349 10.0077C76.2965 9.97263 76.4622 9.94379 76.6281 9.91907C76.9614 9.86963 77.3054 9.84079 77.6594 9.84079C77.7568 9.84079 77.8541 9.84284 77.9536 9.84696C78.0489 9.85109 78.1441 9.85726 78.2417 9.86757C78.2477 9.86757 78.2541 9.86757 78.2624 9.86963C78.3556 9.87787 78.4509 9.88817 78.5462 9.90053C78.5565 9.90259 78.5669 9.90465 78.5793 9.90671C78.6746 9.91907 78.7699 9.93349 78.8672 9.95203C74.2792 10.945 73.3036 14.0701 68.7715 14.6614C68.2912 14.7232 67.769 14.7582 67.1993 14.7582C66.3708 14.7582 65.6728 14.6882 65.0576 14.581C63.2286 14.2658 62.1473 13.6375 60.6207 13.6375C60.4592 13.6375 60.2935 13.6458 60.1216 13.6602C57.7851 13.8641 55.461 16.0293 53.0127 16.6123C55.4859 13.2729 54.8148 8.89727 53.0127 7.75392C53.0127 7.75392 56.739 5.20148 59.7694 5.06551C59.8523 5.06139 59.9351 5.05933 60.018 5.05933C62.0666 5.05933 63.5724 6.03581 65.2254 6.74242C66.1597 7.14208 67.1457 7.45521 68.3034 7.45521C71.8495 7.45521 75.667 4.46809 79.9298 4.46809C84.1405 4.46809 87.0093 6.29559 90.0003 6.83718Z"
      fill="black"
    />
  </g>
  <defs>
    <clipPath id="clip0_30_94">
      <rect width="90" height="70" fill="white" />
    </clipPath>
  </defs>
</svg>
