<svg
  width="20"
  height="21"
  viewBox="0 0 20 21"
  fill="none"
  xmlns="http://www.w3.org/2000/svg"
>
  <path
    d="M9.6875 0.8125C15 0.8125 19.375 5.1875 19.375 10.5C19.375 15.8516 15 20.1875 9.6875 20.1875C4.33594 20.1875 0 15.8516 0 10.5C0 5.1875 4.33594 0.8125 9.6875 0.8125ZM14.1406 7.41406C14.1797 7.29688 14.1797 7.17969 14.1406 7.02344C14.1406 6.94531 14.0625 6.82812 14.0234 6.78906C13.9062 6.67188 13.7109 6.67188 13.6328 6.67188C13.2812 6.67188 12.6953 6.86719 10 8C9.0625 8.39062 7.1875 9.17188 4.375 10.4219C3.90625 10.6172 3.67188 10.7734 3.63281 10.9688C3.59375 11.2812 4.10156 11.3984 4.6875 11.5938C5.19531 11.75 5.85938 11.9453 6.21094 11.9453C6.52344 11.9453 6.875 11.8281 7.26562 11.5547C9.88281 9.75781 11.25 8.85938 11.3281 8.85938C11.4062 8.85938 11.4844 8.82031 11.5234 8.85938C11.6016 8.9375 11.6016 9.01562 11.5625 9.05469C11.5234 9.25 9.0625 11.5156 8.90625 11.6719C8.35938 12.2188 7.73438 12.5703 8.71094 13.1953C9.53125 13.7422 10 14.0938 10.8594 14.6406C11.4062 14.9922 11.8359 15.4219 12.3828 15.3828C12.6562 15.3438 12.9297 15.1094 13.0469 14.3672C13.3984 12.6875 14.0234 8.9375 14.1406 7.41406Z"
    fill="white"
  />
</svg>
