<svg width="32" height="34" viewBox="0 0 32 34" fill="none" xmlns="http://www.w3.org/2000/svg">
    <path
        d="M30 17C30 12 27.3125 7.4375 23 4.9375C18.625 2.375 13.3125 2.375 9 4.9375C4.625 7.4375 2 12 2 17C2 22.0625 4.625 26.625 9 29.125C13.3125 31.6875 18.625 31.6875 23 29.125C27.3125 26.625 30 22.0625 30 17ZM0 17C0 11.3125 3 6.0625 8 3.1875C12.9375 0.3125 19 0.3125 24 3.1875C28.9375 6.0625 32 11.3125 32 17C32 22.75 28.9375 28 24 30.875C19 33.75 12.9375 33.75 8 30.875C3 28 0 22.75 0 17ZM15 8C15 7.5 15.4375 7 16 7C16.5 7 17 7.5 17 8V16.5L22.5 20.1875C23 20.5 23.125 21.125 22.8125 21.5625C22.5 22.0625 21.875 22.1875 21.4375 21.875L15.4375 17.875C15.125 17.6875 15 17.375 15 17V8Z"
        fill="#007DC3" />
</svg>