<svg width="24" height="33" viewBox="0 0 24 33" fill="none" xmlns="http://www.w3.org/2000/svg">
    <path
        d="M20.9375 16C21.625 14.3125 22 13 22 12C22 6.5 17.5 2 12 2C6.4375 2 2 6.5 2 12C2 13 2.3125 14.3125 3 16C3.6875 17.625 4.625 19.375 5.75 21.125C7.875 24.5625 10.375 27.875 11.9375 29.875C13.5625 27.875 16.0625 24.5625 18.1875 21.125C19.3125 19.375 20.25 17.625 20.9375 16ZM13.4375 31.25C12.6875 32.1875 11.25 32.1875 10.5 31.25C7.3125 27.1875 0 17.5 0 12C0 5.375 5.375 0 12 0C18.625 0 24 5.375 24 12C24 17.5 16.6875 27.1875 13.4375 31.25Z"
        fill="#007DC3" />
</svg>