<svg width="33" height="34" viewBox="0 0 33 34" fill="none" xmlns="http://www.w3.org/2000/svg">
    <path
        d="M23.4375 18.25L30.4375 21.25C31.5625 21.6875 32.1875 22.875 31.9375 24.0625L30.4375 31.0625C30.1875 32.1875 29.1875 33.0625 28 33.0625C27.5625 33.0625 27.1875 33 26.8125 33C26.5625 33 26.25 33 26 32.9375C11.4375 31.9375 0 19.8125 0 5C0 3.875 0.8125 2.8125 1.9375 2.5625L8.9375 1.0625C10.125 0.8125 11.3125 1.4375 11.75 2.5625L14.75 9.5625C15.1875 10.5625 14.9375 11.75 14.0625 12.4375L11.5 14.5625C13.1875 17.4375 15.5625 19.8125 18.4375 21.5L20.5625 18.9375C21.25 18.0625 22.4375 17.8125 23.4375 18.25ZM27.9375 31C28.1875 31 28.375 30.875 28.4375 30.625L29.9375 23.625C30 23.375 29.875 23.1875 29.6875 23.0625L22.6875 20.0625C22.4375 20 22.25 20.0625 22.0625 20.1875L20 22.75C19.375 23.5 18.3125 23.6875 17.4375 23.1875C14.25 21.375 11.625 18.75 9.8125 15.5625C9.3125 14.6875 9.5 13.625 10.25 13L12.8125 10.9375C12.9375 10.75 13 10.5625 12.9375 10.3125L9.9375 3.3125C9.8125 3.125 9.625 3 9.375 3.0625L2.375 4.5625C2.125 4.5625 2 4.8125 2 5C2 19.375 13.625 31 27.9375 31Z"
        fill="#007DC3" />
</svg>